<svg width="67" height="139" viewBox="0 0 67 139" fill="none" xmlns="http://www.w3.org/2000/svg">
<path d="M19.6562 87.2188C26.5312 90.8438 32.7812 92.6875 38.4062 92.75C44.0312 92.75 48.875 91.125 52.9375 87.875C59.8125 82.3125 63.25 73.1875 63.25 60.5C63.25 51.5625 61.3438 44.1875 57.5312 38.375C53.0312 31.5 46.7188 28.0625 38.5938 28.0625C37.9688 28.0625 37.3125 28.0938 36.625 28.1562C28.8125 28.8438 23.1562 33.25 19.6562 41.375L23.4062 42.875C26.7812 35.5625 31.9062 31.8438 38.7812 31.7188C43.4062 31.7188 47.4062 33.2812 50.7812 36.4062C56.2188 41.5938 58.9375 49.625 58.9375 60.5C58.9375 67.625 57.7188 73.5938 55.2812 78.4062C51.5938 85.5312 45.8438 89.0938 38.0312 89.0938C33.9062 89.0938 29.0938 87.75 23.5938 85.0625V66.0312H39.3438V62.5625H19.6562V87.2188Z" fill="white"/>
<path d="M47.3438 51.7812C40.4688 48.1562 34.2188 46.3125 28.5938 46.25C22.9688 46.25 18.125 47.875 14.0625 51.125C7.1875 56.6875 3.75 65.8125 3.75 78.5C3.75 87.4375 5.65625 94.8125 9.46875 100.625C13.9688 107.5 20.2812 110.938 28.4062 110.938C29.0312 110.938 29.6875 110.906 30.375 110.844C38.1875 110.156 43.8438 105.75 47.3438 97.625L43.5938 96.125C40.2188 103.438 35.0938 107.156 28.2188 107.281C23.5938 107.281 19.5938 105.719 16.2188 102.594C10.7812 97.4062 8.0625 89.375 8.0625 78.5C8.0625 71.375 9.28125 65.4062 11.7188 60.5938C15.4062 53.4688 21.1562 49.9062 28.9688 49.9062C33.0938 49.9062 37.9062 51.25 43.4062 53.9375V72.9688H27.6562V76.4375H47.3438V51.7812Z" fill="white"/>
</svg>
