<svg width="18" height="18" viewBox="0 0 18 18" fill="none" xmlns="http://www.w3.org/2000/svg">
<g id="meteor-icons:images" clip-path="url(#clip0_144_32141)">
<g id="Group">
<path id="Vector" d="M15.75 0.75H5.25C4.42157 0.75 3.75 1.42157 3.75 2.25V12.75C3.75 13.5784 4.42157 14.25 5.25 14.25H15.75C16.5784 14.25 17.25 13.5784 17.25 12.75V2.25C17.25 1.42157 16.5784 0.75 15.75 0.75Z" stroke="black" stroke-width="1.5" stroke-linecap="round" stroke-linejoin="round"/>
<path id="Vector_2" d="M12.75 6.75C13.5784 6.75 14.25 6.07843 14.25 5.25C14.25 4.42157 13.5784 3.75 12.75 3.75C11.9216 3.75 11.25 4.42157 11.25 5.25C11.25 6.07843 11.9216 6.75 12.75 6.75Z" stroke="black" stroke-width="1.5" stroke-linecap="round" stroke-linejoin="round"/>
<path id="Vector_3" d="M3.75 12L8.25 7.5L15 14.25M0.75 3.75V13.5C0.75 13.9925 0.846997 14.4801 1.03545 14.9351C1.22391 15.39 1.50013 15.8034 1.84835 16.1517C2.55161 16.8549 3.50544 17.25 4.5 17.25H14.25" stroke="black" stroke-width="1.5" stroke-linecap="round" stroke-linejoin="round"/>
</g>
</g>
<defs>
<clipPath id="clip0_144_32141">
<rect width="18" height="18" fill="white"/>
</clipPath>
</defs>
</svg>
